<svg id="Capa_1" enable-background="new 0 0 512 512" height="512" viewBox="0 0 512 512" width="512" xmlns="http://www.w3.org/2000/svg" xmlns:xlink="http://www.w3.org/1999/xlink"><linearGradient id="lg1"><stop offset="0" stop-color="#0056e0"/><stop offset="1" stop-color="#fc54ff"/></linearGradient><linearGradient id="SVGID_1_" gradientUnits="userSpaceOnUse" x1="74.981" x2="437.02" xlink:href="#lg1" y1="437.019" y2="74.98"/><radialGradient id="SVGID_2_" cx="200.226" cy="279.324" gradientUnits="userSpaceOnUse" r="321.733"><stop offset=".0053" stop-color="#8d00db" stop-opacity=".66"/><stop offset=".0271" stop-color="#9003dc" stop-opacity=".646"/><stop offset=".3397" stop-color="#bf26eb" stop-opacity=".438"/><stop offset=".6172" stop-color="#e03ff6" stop-opacity=".254"/><stop offset=".8468" stop-color="#f54efd" stop-opacity=".102"/><stop offset="1" stop-color="#fc54ff" stop-opacity="0"/></radialGradient><linearGradient id="lg2"><stop offset="0" stop-color="#fc54ff"/><stop offset=".2201" stop-color="#fd75ff"/><stop offset=".7016" stop-color="#fec8ff"/><stop offset="1" stop-color="#fff"/></linearGradient><linearGradient id="SVGID_3_" gradientUnits="userSpaceOnUse" x1="393.135" x2="681.098" xlink:href="#lg2" y1="362.64" y2="74.677"/><linearGradient id="SVGID_4_" gradientUnits="userSpaceOnUse" x1="265.581" x2="775.039" xlink:href="#lg2" y1="398.477" y2="-110.982"/><linearGradient id="SVGID_5_" gradientUnits="userSpaceOnUse" x1="339.474" x2="502.24" y1="281.293" y2="281.293"><stop offset=".0053" stop-color="#8d00db" stop-opacity=".66"/><stop offset=".0551" stop-color="#a613e3" stop-opacity=".627"/><stop offset=".1229" stop-color="#c127ec" stop-opacity=".582"/><stop offset=".2008" stop-color="#d738f3" stop-opacity=".53"/><stop offset=".2917" stop-color="#e844f8" stop-opacity=".47"/><stop offset=".4042" stop-color="#f34dfc" stop-opacity=".395"/><stop offset=".5619" stop-color="#fa53fe" stop-opacity=".291"/><stop offset="1" stop-color="#fc54ff" stop-opacity="0"/></linearGradient><linearGradient id="SVGID_6_" gradientUnits="userSpaceOnUse" x1="135.532" x2="493.365" xlink:href="#lg2" y1="485.069" y2="127.236"/><linearGradient id="SVGID_7_" gradientUnits="userSpaceOnUse" x1="309.66" x2="371.259" y1="282.11" y2="282.11"><stop offset=".0053" stop-color="#8d00db" stop-opacity=".66"/><stop offset=".0775" stop-color="#9d0ce0" stop-opacity=".612"/><stop offset=".2527" stop-color="#bf26eb" stop-opacity=".496"/><stop offset=".4318" stop-color="#da3af4" stop-opacity=".377"/><stop offset=".6138" stop-color="#ed49fa" stop-opacity=".256"/><stop offset=".8007" stop-color="#f851fe" stop-opacity=".132"/><stop offset="1" stop-color="#fc54ff" stop-opacity="0"/></linearGradient><linearGradient id="SVGID_8_" gradientUnits="userSpaceOnUse" x1="-118.937" x2="348.833" xlink:href="#lg2" y1="514.131" y2="46.36"/><linearGradient id="SVGID_9_" gradientUnits="userSpaceOnUse" x1="-167.18" x2="338.934" xlink:href="#lg2" y1="741.604" y2="235.49"/><linearGradient id="SVGID_10_" gradientUnits="userSpaceOnUse" x1="-189.881" x2="392.681" xlink:href="#lg2" y1="682.06" y2="99.498"/><linearGradient id="SVGID_11_" gradientUnits="userSpaceOnUse" x1="78.385" x2="211.508" xlink:href="#lg1" y1="475.847" y2="342.725"/><linearGradient id="SVGID_12_" gradientUnits="userSpaceOnUse" x1="34.264" x2="165.872" xlink:href="#lg1" y1="473.916" y2="342.308"/><linearGradient id="SVGID_13_" gradientUnits="userSpaceOnUse" x1="-9.705" x2="120.214" xlink:href="#lg1" y1="471.505" y2="341.586"/><linearGradient id="SVGID_14_" gradientUnits="userSpaceOnUse" x1="66.739" x2="296.163" xlink:href="#lg1" y1="332.908" y2="103.483"/><linearGradient id="SVGID_15_" gradientUnits="userSpaceOnUse" x1="-49.444" x2="250.682" xlink:href="#lg1" y1="391.97" y2="91.845"/><linearGradient id="SVGID_16_" gradientUnits="userSpaceOnUse" x1="39.997" x2="363.344" xlink:href="#lg1" y1="467.22" y2="143.873"/><linearGradient id="SVGID_17_" gradientUnits="userSpaceOnUse" x1="-101.233" x2="276.461" xlink:href="#lg1" y1="509.14" y2="131.445"/><linearGradient id="SVGID_18_" gradientUnits="userSpaceOnUse" x1="-139.063" x2="273.373" xlink:href="#lg1" y1="604.466" y2="192.03"/><linearGradient id="SVGID_19_" gradientUnits="userSpaceOnUse" x1="-317.437" x2="267.934" xlink:href="#lg2" y1="684.681" y2="99.31"/><linearGradient id="SVGID_20_" gradientUnits="userSpaceOnUse" x1="-556.987" x2="247.584" xlink:href="#lg2" y1="920.264" y2="115.692"/><g><circle cx="256" cy="256" fill="url(#SVGID_1_)" r="256"/><circle cx="256" cy="256" fill="url(#SVGID_2_)" r="256"/><path d="m362.745 327.74c21.027 16.344 41.787 32.466 62.132 48.238 2.851 2.21 6.423 3.34 10.165 3.211 9.284-.321 17.239-8.102 17.697-17.349 2.044-41.916 3.089-83.832 3.133-125.748-30.78 30.022-62.059 60.731-93.127 91.648z" fill="url(#SVGID_3_)"/><path d="m438.276 183.388c-3.81-.04-7.488 1.162-10.462 3.435-21.222 16.215-42.668 32.697-64.189 49.319-10.258 15.271-20.583 30.602-30.916 45.968 10.123 15.272 20.155 30.49 30.037 45.629 50.387-.806 93.003-42.13 93.128-91.647.013-11.916-.056-23.832-.204-35.748-.118-9.244-7.937-16.841-17.394-16.956z" fill="url(#SVGID_4_)"/><path d="m438.276 183.388c-3.81-.04-7.488 1.162-10.462 3.435-21.222 16.215-42.668 32.697-64.189 49.319-10.258 15.271-20.583 30.602-30.916 45.968 10.123 15.272 20.155 30.49 30.037 45.629 21.027 16.344 41.787 32.466 62.132 48.238 2.851 2.21 6.423 3.34 10.165 3.211 9.284-.321 17.239-8.102 17.697-17.349 2.626-53.832 3.602-107.664 2.929-161.496-.117-9.243-7.936-16.841-17.393-16.955z" fill="url(#SVGID_5_)"/><path d="m332.821 205.513c-10.144 25.506-20.464 51.091-30.796 76.711 10.123 25.563 20.094 51.073 29.75 76.484 16.716-.209 30.638-14.119 30.971-30.968.569-30.533.862-61.065.879-91.598.007-16.85-13.84-30.57-30.804-30.629z" fill="url(#SVGID_6_)"/><path d="m332.821 205.513c-10.144 25.506-20.464 51.091-30.796 76.711 10.123 25.563 20.094 51.073 29.75 76.484 16.716-.209 30.638-14.119 30.971-30.968.569-30.533.862-61.065.879-91.598.007-16.85-13.84-30.57-30.804-30.629z" fill="url(#SVGID_7_)"/><path d="m87.547 168.133c-16.9.257-30.969 13.916-31.194 30.459-.724 55 .273 110 2.993 165 .843 16.545 15.118 30.543 31.654 31.138 20 .695 40 1.264 60 1.708-2.456-76.331-3.189-152.663-2.197-228.995-20.419.18-40.837.409-61.256.69z" fill="url(#SVGID_8_)"/><path d="m301.942 167.061c-10.209-.038-20.419-.063-30.628-.076.142 76.864.037 153.728-.314 230.591 10-.032 20-.095 30-.189 16.538-.165 30.295-14.108 30.636-31.018 1.046-56.171 1.43-112.343 1.151-168.515-.092-16.91-13.943-30.724-30.845-30.793z" fill="url(#SVGID_9_)"/><path d="m301.382 366.676c.2-17.915.359-35.829.478-53.743-14.48-19.128-29.127-38.335-43.811-57.553 14.687-19.219 29.405-38.446 44.023-57.61-.059-16.958-13.856-30.763-30.758-30.787-40.837-.051-81.674.102-122.511.459-16.901.167-30.861 13.932-31.02 30.697-.501 55.716.189 111.431 2.072 167.147.592 16.764 14.608 30.771 31.145 31.15 40 .885 80 1.265 120 1.138 16.539-.053 30.166-13.945 30.382-30.898z" fill="url(#SVGID_10_)"/><path d="m210.535 358.999c-.084-8.48-6.954-15.396-15.357-15.467-8.402-.065-15.107 6.718-14.953 15.176.154 8.455 7.051 15.413 15.383 15.503 8.333.088 15.01-6.729 14.927-15.212z" fill="url(#SVGID_11_)"/><path d="m165.071 358.508c-.173-8.453-7.105-15.381-15.508-15.502-8.402-.119-15.045 6.583-14.802 14.994.243 8.407 7.223 15.376 15.554 15.539 8.332.163 14.927-6.58 14.756-15.031z" fill="url(#SVGID_12_)"/><path d="m119.606 357.69c-.263-8.396-7.257-15.328-15.66-15.498-8.402-.168-14.983 6.433-14.65 14.771.332 8.334 7.394 15.309 15.725 15.535 8.333.231 14.846-6.411 14.585-14.808z" fill="url(#SVGID_13_)"/><path d="m87.847 311.645c10.191.169 20.382.323 30.573.46 19.973-19.984 40.286-40.242 60.728-60.634-30.715 10.161-61.377 20.201-91.906 29.96.153 10.071.355 20.143.605 30.214z" fill="url(#SVGID_14_)"/><path d="m87.068 198.346c-.306 27.695-.249 55.391.173 83.086 10.228.104 20.456.198 30.683.283 10.055-13.844 20.223-27.771 30.454-41.756-10.268-14.003-20.483-27.952-30.596-41.818-10.237.061-20.475.129-30.714.205z" fill="url(#SVGID_15_)"/><path d="m209.889 251.514c-30.725 10.205-61.406 20.325-91.964 30.201.126 10.13.291 20.26.495 30.391 61.147.828 122.293 1.104 183.44.829.068-10.237.123-20.473.165-30.71-30.641-10.153-61.38-20.443-92.136-30.711z" fill="url(#SVGID_16_)"/><path d="m148.498 197.976c-10.238.048-20.477.103-30.715.165-.251 27.858-.203 55.716.142 83.574 33.24.275 66.48.452 99.721.529-23.109-28.216-46.307-56.387-69.148-84.268z" fill="url(#SVGID_17_)"/><path d="m148.498 197.976c-.311 46.312 38.01 84.248 84.572 84.378 22.985.032 45.969.016 68.954-.048.115-28.179.131-56.358.048-84.536-51.191-.102-102.383-.033-153.574.206z" fill="url(#SVGID_18_)"/><path d="m163.419 121.808c-16.958 2.691-33.941 5.43-50.945 8.199-8.359 1.372-11.989 11.609-6.083 17.355 12.006 11.699 24.143 23.505 36.365 35.389-3.093 16.923-6.111 33.826-9.032 50.706-1.435 8.295 7.379 14.646 14.889 10.733 15.281-7.965 30.587-15.982 45.896-24.022 15.285 8.01 30.59 16.053 45.89 24.098 7.522 3.956 16.312-2.432 14.876-10.808-1.146-6.682-2.292-13.363-3.436-20.044-29.812-30.731-59.514-61.418-88.42-91.606z" fill="url(#SVGID_19_)"/><path d="m283.453 146.195c6.017-5.911 2.617-16.25-5.71-17.5-16.946-2.533-33.869-5.013-50.765-7.428-7.471-15.462-14.85-30.898-22.094-46.294-3.562-7.578-14.136-7.433-17.972.219-7.79 15.557-15.636 31.101-23.492 46.615-1.044 49.695 38.719 90.088 88.42 91.606-1.774-10.354-3.544-20.708-5.307-31.061 12.358-12.071 24.68-24.135 36.92-36.157z" fill="url(#SVGID_20_)"/></g></svg>